Coordinates
version=1
nRows=14
nColumns=40
inDegrees=yes

Units are S.I. units (second, meters, Newtons, ...)
If the header above contains a line with 'inDegrees', this indicates whether rotational values are in degrees (yes) or radians (no).

endheader
time	pelvis_tilt	pelvis_list	pelvis_rotation	pelvis_tx	pelvis_ty	pelvis_tz	hip_flexion_r	hip_adduction_r	hip_rotation_r	knee_angle_r	knee_angle_r_beta	ankle_angle_r	subtalar_angle_r	mtp_angle_r	hip_flexion_l	hip_adduction_l	hip_rotation_l	knee_angle_l	knee_angle_l_beta	ankle_angle_l	subtalar_angle_l	mtp_angle_l	lumbar_extension	lumbar_bending	lumbar_rotation	arm_flex_r	arm_add_r	arm_rot_r	elbow_flex_r	pro_sup_r	wrist_flex_r	wrist_dev_r	arm_flex_l	arm_add_l	arm_rot_l	elbow_flex_l	pro_sup_l	wrist_flex_l	wrist_dev_l
      3.50000000	    -11.65694281	     -1.27144247	    -10.26862896	     -0.28264542	      1.03831805	     -1.08276480	     -4.46184927	    -12.24520681	     -3.06946434	     49.60380540	      0.86574973	    -10.29794036	      0.00000000	      0.00000000	     19.14371150	      0.46498570	     -7.00828610	     17.50107280	      0.30545134	     -4.50375741	      0.00000000	      0.00000000	      1.07842767	     -2.52610340	     10.93742250	     89.93620938	    -14.88524446	     30.40648284	     35.75177002	     79.57902539	      0.00000000	      0.00000000	     89.90047617	    -21.73767738	     27.55764739	     36.22028248	     82.40839583	      0.00000000	      0.00000000
      3.50500000	    -11.70447211	     -1.17008777	    -10.31781826	     -0.28288107	      1.03817939	     -1.08282433	     -4.39771981	    -12.36076501	     -3.14382776	     49.58558111	      0.86543165	    -10.21787261	      0.00000000	      0.00000000	     19.17492150	      0.55116791	     -7.03374106	     17.37282861	      0.30321306	     -4.63533732	      0.00000000	      0.00000000	      1.09083816	     -2.63172554	     11.03345261	     89.93607515	    -15.10250188	     30.42090710	     36.02797426	     80.91833910	      0.00000000	      0.00000000	     89.90148443	    -21.77930252	     27.44591833	     36.39144404	     85.20541076	      0.00000000	      0.00000000
      3.51000000	    -11.73715091	     -1.13255871	    -10.31131511	     -0.28319721	      1.03814186	     -1.08292832	     -4.37152485	    -12.37361665	     -3.18305249	     49.55891865	      0.86496630	    -10.19105847	      0.00000000	      0.00000000	     19.24656668	      0.57621219	     -7.06192156	     17.39483071	      0.30359707	     -4.73272737	      0.00000000	      0.00000000	      1.06956141	     -2.66529159	     11.00815505	     89.93639785	    -15.06696067	     30.13379881	     36.02964168	     81.73537905	      0.00000000	      0.00000000	     89.90182256	    -21.81081811	     27.45943392	     36.46499323	     84.93686830	      0.00000000	      0.00000000
      3.51500000	    -11.77879534	     -1.09926171	    -10.29835553	     -0.28345492	      1.03804698	     -1.08302461	     -4.32255577	    -12.38836635	     -3.24914914	     49.56874650	      0.86513783	    -10.16911429	      0.00000000	      0.00000000	     19.31959264	      0.59212394	     -7.09937875	     17.40372848	      0.30375236	     -4.73480535	      0.00000000	      0.00000000	      1.06696813	     -2.68748784	     10.96094717	     89.93679443	    -15.02605816	     30.04662842	     36.04767210	     81.50076915	      0.00000000	      0.00000000	     89.90236040	    -21.85728539	     27.46966383	     36.52072751	     84.89175280	      0.00000000	      0.00000000
      3.52000000	    -11.86685641	     -1.07199527	    -10.34548384	     -0.28373924	      1.03785632	     -1.08301692	     -4.21659865	    -12.39648227	     -3.25049413	     49.55412190	      0.86488259	    -10.19074188	      0.00000000	      0.00000000	     19.43259703	      0.57947854	     -7.15040331	     17.39748628	      0.30364342	     -4.76577938	      0.00000000	      0.00000000	      1.11968511	     -2.71000512	     11.01193307	     89.93691185	    -15.05462062	     29.98429737	     36.09451425	     81.08294063	      0.00000000	      0.00000000	     89.90264899	    -21.78126429	     27.27831935	     36.48605614	     85.08373966	      0.00000000	      0.00000000
      3.52500000	    -11.93212730	     -1.07092556	    -10.33193871	     -0.28396557	      1.03772143	     -1.08313684	     -4.19178524	    -12.36320375	     -3.28255573	     49.45045621	      0.86307328	    -10.17565805	      0.00000000	      0.00000000	     19.54112511	      0.56526959	     -7.13796502	     17.44656487	      0.30450000	     -4.77431090	      0.00000000	      0.00000000	      1.14056830	     -2.70164979	     10.99491273	     89.93710803	    -15.09656201	     29.92983299	     36.15900430	     81.08123623	      0.00000000	      0.00000000	     89.90301640	    -21.74283567	     27.14670059	     36.49151117	     85.07112088	      0.00000000	      0.00000000
      3.53000000	    -11.99691386	     -1.03065765	    -10.35913044	     -0.28420542	      1.03760571	     -1.08313681	     -4.12102707	    -12.35030420	     -3.24378897	     49.42974293	      0.86271176	    -10.14399384	      0.00000000	      0.00000000	     19.64187996	      0.56081447	     -7.24262214	     17.49668645	      0.30537479	     -4.73761581	      0.00000000	      0.00000000	      1.17490226	     -2.74479910	     11.03312160	     89.93732796	    -15.12015217	     29.75227447	     36.15263377	     81.63476688	      0.00000000	      0.00000000	     89.90338059	    -21.68643524	     27.11333406	     36.52440193	     84.81864925	      0.00000000	      0.00000000
      3.53500000	    -12.01995528	     -0.98094922	    -10.36445527	     -0.28436834	      1.03751824	     -1.08322098	     -4.11047142	    -12.37026154	     -3.22327501	     49.37848752	      0.86181719	    -10.15771066	      0.00000000	      0.00000000	     19.70372214	      0.58612071	     -7.33144800	     17.53062666	      0.30596716	     -4.76737488	      0.00000000	      0.00000000	      1.16624017	     -2.79977057	     11.03890720	     89.93743416	    -15.13228113	     29.75051578	     36.19390219	     80.64904241	      0.00000000	      0.00000000	     89.90371908	    -21.65057300	     26.98221396	     36.56841112	     85.04574815	      0.00000000	      0.00000000
      3.54000000	    -12.09828289	     -0.93075952	    -10.39435945	     -0.28463937	      1.03734775	     -1.08323496	     -4.01768609	    -12.39440420	     -3.22033093	     49.35062292	      0.86133086	    -10.00596628	      0.00000000	      0.00000000	     19.84406044	      0.60037761	     -7.38812652	     17.62001674	      0.30752731	     -4.66640243	      0.00000000	      0.00000000	      1.22334968	     -2.84437030	     11.07922549	     89.93767018	    -15.16156987	     29.56682142	     36.22417480	     81.23885622	      0.00000000	      0.00000000	     89.90394041	    -21.58210081	     26.89379732	     36.51486634	     84.93055217	      0.00000000	      0.00000000
      3.54500000	    -12.11196705	     -0.89566259	    -10.42950003	     -0.28464869	      1.03720284	     -1.08330084	     -4.02301635	    -12.40896543	     -3.17926680	     49.29231835	      0.86031325	    -10.05822944	      0.00000000	      0.00000000	     19.89079885	      0.60567644	     -7.52997045	     17.67565684	      0.30849841	     -4.54349948	      0.00000000	      0.00000000	      1.22141572	     -2.86978523	     11.09958035	     89.93784490	    -15.16843745	     29.62436078	     36.25590596	     80.59001295	      0.00000000	      0.00000000	     89.90419333	    -21.59264803	     26.88269409	     36.56852871	     84.96077939	      0.00000000	      0.00000000
      3.55000000	    -12.17418803	     -0.92461270	    -10.41915269	     -0.28487766	      1.03709599	     -1.08334255	     -3.97643984	    -12.32236429	     -3.16380475	     49.23790768	      0.85936361	    -10.06636111	      0.00000000	      0.00000000	     20.00471990	      0.54753403	     -7.55363221	     17.76188150	      0.31000331	     -4.52104816	      0.00000000	      0.00000000	      1.23644090	     -2.83872855	     11.09250493	     89.93805133	    -15.20549195	     29.48468312	     36.33518111	     80.94201790	      0.00000000	      0.00000000	     89.90447741	    -21.53570496	     26.74243777	     36.58060402	     84.99215979	      0.00000000	      0.00000000
      3.55500000	    -12.20720778	     -0.90188246	    -10.40690610	     -0.28506233	      1.03700522	     -1.08340822	     -3.97409755	    -12.29330716	     -3.11847360	     49.13934223	      0.85764331	    -10.21976746	      0.00000000	      0.00000000	     20.08755382	      0.55023745	     -7.58893643	     17.82740875	      0.31114698	     -4.53592048	      0.00000000	      0.00000000	      1.24139983	     -2.86576352	     11.09124624	     89.93822844	    -15.23742987	     29.35545917	     36.32501143	     81.48749943	      0.00000000	      0.00000000	     89.90485192	    -21.48950422	     26.69912174	     36.60607338	     84.82529575	      0.00000000	      0.00000000
      3.56000000	    -12.28901168	     -0.86206259	    -10.36738636	     -0.28541694	      1.03686943	     -1.08351496	     -3.87751290	    -12.29936321	     -3.15723988	     49.15059511	      0.85783971	    -10.02836559	      0.00000000	      0.00000000	     20.23083742	      0.57901983	     -7.52710692	     17.86797573	      0.31185501	     -4.59002065	      0.00000000	      0.00000000	      1.28880301	     -2.90720496	     11.07525876	     89.93833822	    -15.32545653	     29.76377541	     36.47951693	     78.07647900	      0.00000000	      0.00000000	     89.90584642	    -21.47751188	     27.21695308	     36.71236785	     81.37626452	      0.00000000	      0.00000000
      3.56500000	    -12.37615036	     -0.87747278	    -10.38017318	     -0.28568718	      1.03666869	     -1.08350690	     -3.76647429	    -12.23152809	     -3.10697879	     49.12200798	      0.85734077	    -10.15792021	      0.00000000	      0.00000000	     20.41955624	      0.50670832	     -7.64171545	     18.04906347	      0.31501558	     -4.55324419	      0.00000000	      0.00000000	      1.33462390	     -2.87493256	     11.04298023	     89.93881537	    -15.22315646	     29.27936854	     36.43312426	     80.28948900	      0.00000000	      0.00000000	     89.90541681	    -21.45692345	     26.49256557	     36.69120482	     85.02809545	      0.00000000	      0.00000000
